<svg xmlns="http://www.w3.org/2000/svg" version="1.1" xmlns:xlink="http://www.w3.org/1999/xlink" xmlns:svgjs="http://svgjs.com/svgjs" width="500" height="500"><svg xmlns="http://www.w3.org/2000/svg" xmlns:xlink="http://www.w3.org/1999/xlink" width="500" zoomAndPan="magnify" viewBox="0 0 375 374.999991" height="500" preserveAspectRatio="xMidYMid meet" version="1.0"><defs><g></g><clipPath id="SvgjsClipPath1006"><path d="M 110.753906 115.449219 L 214.253906 115.449219 L 214.253906 173.199219 L 110.753906 173.199219 Z M 110.753906 115.449219 " clip-rule="nonzero"></path></clipPath><clipPath id="SvgjsClipPath1005"><path d="M 72.542969 131.140625 L 302.691406 131.140625 L 302.691406 195 L 72.542969 195 Z M 72.542969 131.140625 " clip-rule="nonzero"></path></clipPath><clipPath id="SvgjsClipPath1004"><path d="M 72.542969 161.066406 L 302.691406 161.066406 L 302.691406 199.609375 L 72.542969 199.609375 Z M 72.542969 161.066406 " clip-rule="nonzero"></path></clipPath><clipPath id="SvgjsClipPath1003"><path d="M 72.542969 157.039062 L 164 157.039062 L 164 196.15625 L 72.542969 196.15625 Z M 72.542969 157.039062 " clip-rule="nonzero"></path></clipPath><clipPath id="SvgjsClipPath1002"><path d="M 72.542969 172.570312 L 120.339844 172.570312 L 120.339844 193.28125 L 72.542969 193.28125 Z M 72.542969 172.570312 " clip-rule="nonzero"></path></clipPath><clipPath id="SvgjsClipPath1001"><path d="M 240 184 L 284 184 L 284 215.140625 L 240 215.140625 Z M 240 184 " clip-rule="nonzero"></path></clipPath><clipPath id="SvgjsClipPath1000"><path d="M 72.542969 162 L 302.691406 162 L 302.691406 199.609375 L 72.542969 199.609375 Z M 72.542969 162 " clip-rule="nonzero"></path></clipPath></defs><g clip-path="url(#7dcabbe26c)"><path fill="#ee3ec9" d="M 214.242188 167.195312 C 214.242188 168.890625 214.15625 170.578125 213.992188 172.265625 C 213.824219 173.953125 213.578125 175.625 213.246094 177.289062 C 212.917969 178.949219 212.503906 180.59375 212.011719 182.214844 C 211.519531 183.835938 210.949219 185.429688 210.300781 186.996094 C 209.652344 188.5625 208.929688 190.089844 208.132812 191.585938 C 207.332031 193.082031 206.460938 194.53125 205.519531 195.941406 C 204.578125 197.351562 203.570312 198.710938 202.496094 200.019531 C 201.421875 201.332031 200.285156 202.585938 199.085938 203.78125 C 197.886719 204.980469 196.632812 206.117188 195.324219 207.191406 C 194.011719 208.269531 192.652344 209.277344 191.246094 210.21875 C 189.835938 211.160156 188.382812 212.03125 186.890625 212.828125 C 185.394531 213.628906 183.863281 214.351562 182.296875 215 C 180.734375 215.648438 179.140625 216.21875 177.515625 216.710938 C 175.894531 217.203125 174.253906 217.613281 172.589844 217.945312 C 170.929688 218.273438 169.253906 218.523438 167.570312 218.6875 C 165.882812 218.855469 164.191406 218.9375 162.496094 218.9375 C 160.800781 218.9375 159.113281 218.855469 157.425781 218.6875 C 155.738281 218.523438 154.0625 218.273438 152.402344 217.945312 C 150.738281 217.613281 149.097656 217.203125 147.476562 216.710938 C 145.855469 216.21875 144.261719 215.648438 142.695312 215 C 141.128906 214.351562 139.597656 213.628906 138.105469 212.828125 C 136.609375 212.03125 135.160156 211.160156 133.75 210.21875 C 132.339844 209.277344 130.980469 208.269531 129.671875 207.191406 C 128.359375 206.117188 127.105469 204.980469 125.910156 203.78125 C 124.710938 202.585938 123.574219 201.332031 122.5 200.019531 C 121.421875 198.710938 120.414062 197.351562 119.472656 195.941406 C 118.53125 194.53125 117.660156 193.082031 116.863281 191.585938 C 116.0625 190.089844 115.339844 188.5625 114.691406 186.996094 C 114.042969 185.429688 113.472656 183.835938 112.980469 182.214844 C 112.488281 180.59375 112.078125 178.949219 111.746094 177.289062 C 111.417969 175.625 111.167969 173.953125 111.003906 172.265625 C 110.835938 170.578125 110.753906 168.890625 110.753906 167.195312 C 110.753906 165.5 110.835938 163.808594 111.003906 162.121094 C 111.167969 160.4375 111.417969 158.761719 111.746094 157.097656 C 112.078125 155.4375 112.488281 153.796875 112.980469 152.171875 C 113.472656 150.550781 114.042969 148.957031 114.691406 147.394531 C 115.339844 145.828125 116.0625 144.296875 116.863281 142.800781 C 117.660156 141.308594 118.53125 139.855469 119.472656 138.445312 C 120.414062 137.039062 121.421875 135.679688 122.5 134.367188 C 123.574219 133.058594 124.710938 131.804688 125.910156 130.605469 C 127.105469 129.40625 128.359375 128.269531 129.671875 127.195312 C 130.980469 126.121094 132.339844 125.113281 133.75 124.171875 C 135.160156 123.230469 136.609375 122.359375 138.105469 121.558594 C 139.597656 120.761719 141.128906 120.039062 142.695312 119.390625 C 144.261719 118.742188 145.855469 118.171875 147.476562 117.679688 C 149.097656 117.1875 150.738281 116.773438 152.402344 116.445312 C 154.0625 116.113281 155.738281 115.867188 157.425781 115.699219 C 159.113281 115.53125 160.800781 115.449219 162.496094 115.449219 C 164.191406 115.449219 165.882812 115.53125 167.570312 115.699219 C 169.253906 115.867188 170.929688 116.113281 172.589844 116.445312 C 174.253906 116.773438 175.894531 117.1875 177.515625 117.679688 C 179.140625 118.171875 180.734375 118.742188 182.296875 119.390625 C 183.863281 120.039062 185.394531 120.761719 186.890625 121.558594 C 188.382812 122.359375 189.835938 123.230469 191.246094 124.171875 C 192.652344 125.113281 194.011719 126.121094 195.324219 127.195312 C 196.632812 128.269531 197.886719 129.40625 199.085938 130.605469 C 200.285156 131.804688 201.421875 133.058594 202.496094 134.367188 C 203.570312 135.679688 204.578125 137.039062 205.519531 138.445312 C 206.460938 139.855469 207.332031 141.308594 208.132812 142.800781 C 208.929688 144.296875 209.652344 145.828125 210.300781 147.394531 C 210.949219 148.957031 211.519531 150.550781 212.011719 152.171875 C 212.503906 153.796875 212.917969 155.4375 213.246094 157.097656 C 213.578125 158.761719 213.824219 160.4375 213.992188 162.121094 C 214.15625 163.808594 214.242188 165.5 214.242188 167.195312 Z M 214.242188 167.195312 " fill-opacity="1" fill-rule="nonzero"></path></g><g clip-path="url(#3936b25a22)"><path fill="#4c0bd1" d="M 123.332031 194.820312 C 161.699219 194.820312 194.144531 153.175781 207.375 156.972656 C 213.671875 158.753906 216.832031 156.367188 219.625 153.984375 C 223.488281 150.683594 226.640625 147.382812 236.421875 155.128906 C 245.6875 162.460938 251.164062 153.429688 257.414062 144.398438 C 262.539062 136.992188 268.183594 129.589844 276.863281 131.195312 C 296.136719 134.765625 302.691406 172.847656 302.691406 172.847656 L 72.304688 172.847656 C 72.304688 172.847656 96.582031 194.820312 123.332031 194.820312 " fill-opacity="1" fill-rule="nonzero"></path></g><g clip-path="url(#1d223cecb5)"><path fill="#e43397" d="M 80.359375 178.253906 C 98.421875 190.390625 122.46875 188.605469 138.515625 173.9375 C 138.917969 173.535156 139.378906 173.191406 139.78125 172.847656 L 72.304688 172.847656 L 80.359375 178.253906 M 213.875 185.5 C 229.519531 201.089844 253.855469 203.792969 272.492188 192.003906 L 302.691406 172.847656 L 200.929688 172.847656 C 201.851562 173.652344 202.828125 174.511719 203.691406 175.375 L 213.875 185.5 M 139.78125 172.847656 L 200.929688 172.847656 C 183.445312 157.945312 157.5 157.832031 139.78125 172.847656 " fill-opacity="1" fill-rule="nonzero"></path></g><g clip-path="url(#fcb9cfbfd9)"><path fill="#00c4cc" d="M 152.863281 157.546875 C 156.40625 157.546875 160.066406 158.84375 163.828125 161.917969 L 164 162.058594 C 155.320312 163.234375 146.890625 166.820312 139.78125 172.847656 L 130.0625 172.847656 C 136.945312 164.632812 144.589844 157.539062 152.863281 157.546875 M 72.304688 172.847656 C 72.304688 172.847656 89.171875 188.113281 110.277344 193.195312 C 106.929688 195.226562 103.679688 196.074219 100.574219 196.074219 C 84.375 196.074219 72.304688 172.847656 72.304688 172.847656 " fill-opacity="1" fill-rule="nonzero"></path></g><g clip-path="url(#37cc45141a)"><path fill="#7900ff" d="M 72.304688 172.847656 L 80.359375 178.253906 C 88.367188 183.632812 97.546875 186.277344 106.6875 186.277344 C 111.273438 186.277344 115.851562 185.613281 120.265625 184.289062 C 117.117188 187.726562 114.027344 190.726562 111.25 192.578125 C 110.929688 192.792969 110.601562 193 110.277344 193.195312 C 89.171875 188.113281 72.304688 172.847656 72.304688 172.847656 " fill-opacity="1" fill-rule="nonzero"></path></g><path fill="#00c4cc" d="M 177.140625 172.847656 L 200.929688 172.847656 C 201.851562 173.652344 202.828125 174.511719 203.691406 175.375 L 213.875 185.5 C 216.1875 187.808594 218.6875 189.828125 221.335938 191.566406 C 221.304688 191.578125 221.273438 191.589844 221.238281 191.597656 C 217.515625 192.808594 214.09375 193.359375 210.882812 193.359375 C 197.789062 193.359375 188.269531 184.183594 176.5625 173.242188 C 176.753906 173.113281 176.949219 172.980469 177.140625 172.847656 " fill-opacity="1" fill-rule="nonzero"></path><path fill="#7900ff" d="M 176.136719 172.847656 L 177.140625 172.847656 C 176.949219 172.980469 176.753906 173.113281 176.5625 173.242188 C 176.417969 173.113281 176.28125 172.980469 176.136719 172.847656 " fill-opacity="1" fill-rule="nonzero"></path><g clip-path="url(#14a77d5809)"><path fill="#00c4cc" d="M 283.679688 184.902344 C 275.789062 196.789062 271.300781 213.402344 258.972656 215.011719 C 258.285156 215.101562 257.632812 215.140625 257.003906 215.140625 C 249.425781 215.140625 246.105469 208.960938 242.695312 202.78125 C 241.953125 201.4375 241.210938 200.089844 240.410156 198.804688 C 242.6875 199.140625 244.984375 199.308594 247.285156 199.308594 C 255.984375 199.308594 264.730469 196.910156 272.492188 192.003906 L 283.679688 184.902344 " fill-opacity="1" fill-rule="nonzero"></path></g><g clip-path="url(#81321888a6)"><path fill="#cb88ff" d="M 164 162.058594 C 168.417969 165.695312 172.386719 169.382812 176.136719 172.847656 L 139.78125 172.847656 C 146.890625 166.820312 155.320312 163.234375 164 162.058594 M 72.304688 172.847656 L 130.0625 172.847656 C 126.9375 176.589844 123.570312 180.683594 120.265625 184.289062 C 115.851562 185.613281 111.273438 186.277344 106.6875 186.277344 C 97.546875 186.277344 88.367188 183.632812 80.359375 178.253906 L 72.304688 172.847656 M 176.136719 172.847656 L 200.929688 172.847656 L 176.136719 172.847656 M 200.929688 172.847656 L 302.691406 172.847656 C 293.832031 172.847656 288.199219 178.101562 283.679688 184.902344 L 272.492188 192.003906 C 264.730469 196.910156 255.984375 199.308594 247.285156 199.308594 C 244.984375 199.308594 242.6875 199.140625 240.410156 198.804688 C 237.558594 194.199219 234.066406 190.417969 227.859375 190.417969 C 225.960938 190.417969 223.800781 190.773438 221.335938 191.566406 C 218.6875 189.828125 216.1875 187.808594 213.875 185.5 L 203.691406 175.375 C 202.828125 174.511719 201.851562 173.652344 200.929688 172.847656 " fill-opacity="1" fill-rule="nonzero"></path></g><g fill="#121640" fill-opacity="1"><g transform="translate(120.761736, 257.085965)"><g><path d="M 29.078125 0 L 22.859375 0 L 18.453125 -16.421875 L 13.96875 0 L 7.734375 0 L -0.03125 -23.75 L 6.40625 -23.75 L 11.0625 -6.28125 L 15.609375 -23.75 L 21.5 -23.75 L 26.15625 -6.28125 L 30.734375 -23.75 L 36.90625 -23.75 Z M 29.078125 0 "></path></g></g></g><g fill="#121640" fill-opacity="1"><g transform="translate(157.422802, 257.085965)"><g><path d="M 10.34375 -18.484375 C 13.507812 -18.484375 15.890625 -17.507812 17.484375 -15.5625 C 19.078125 -13.625 19.773438 -10.957031 19.578125 -7.5625 L 6.71875 -7.5625 C 7.007812 -6.476562 7.523438 -5.640625 8.265625 -5.046875 C 9.015625 -4.460938 9.9375 -4.171875 11.03125 -4.171875 C 12.695312 -4.171875 14.15625 -4.789062 15.40625 -6.03125 L 18.484375 -3.015625 C 16.515625 -0.867188 13.859375 0.203125 10.515625 0.203125 C 7.554688 0.203125 5.195312 -0.644531 3.4375 -2.34375 C 1.6875 -4.039062 0.8125 -6.289062 0.8125 -9.09375 C 0.8125 -11.914062 1.6875 -14.1875 3.4375 -15.90625 C 5.195312 -17.625 7.5 -18.484375 10.34375 -18.484375 Z M 6.609375 -10.71875 L 13.9375 -10.71875 C 13.9375 -11.820312 13.613281 -12.710938 12.96875 -13.390625 C 12.332031 -14.078125 11.476562 -14.421875 10.40625 -14.421875 C 9.414062 -14.421875 8.582031 -14.085938 7.90625 -13.421875 C 7.226562 -12.753906 6.796875 -11.851562 6.609375 -10.71875 Z M 6.609375 -10.71875 "></path></g></g></g><g fill="#121640" fill-opacity="1"><g transform="translate(177.839049, 257.085965)"><g><path d="M 3.0625 -25.765625 C 3.644531 -26.335938 4.390625 -26.625 5.296875 -26.625 C 6.203125 -26.625 6.941406 -26.335938 7.515625 -25.765625 C 8.085938 -25.191406 8.375 -24.453125 8.375 -23.546875 C 8.375 -22.640625 8.085938 -21.890625 7.515625 -21.296875 C 6.941406 -20.710938 6.203125 -20.421875 5.296875 -20.421875 C 4.390625 -20.421875 3.644531 -20.710938 3.0625 -21.296875 C 2.488281 -21.890625 2.203125 -22.640625 2.203125 -23.546875 C 2.203125 -24.453125 2.488281 -25.191406 3.0625 -25.765625 Z M 8.171875 0 L 2.34375 0 L 2.34375 -18.28125 L 8.171875 -18.28125 Z M 8.171875 0 "></path></g></g></g><g fill="#121640" fill-opacity="1"><g transform="translate(188.386312, 257.085965)"><g><path d="M 14.515625 -18.5625 C 16.523438 -18.5625 18.140625 -17.921875 19.359375 -16.640625 C 20.585938 -15.359375 21.203125 -13.65625 21.203125 -11.53125 L 21.203125 0 L 15.328125 0 L 15.328125 -9.90625 C 15.328125 -10.96875 15.039062 -11.804688 14.46875 -12.421875 C 13.894531 -13.046875 13.109375 -13.359375 12.109375 -13.359375 C 10.972656 -13.359375 10.066406 -12.953125 9.390625 -12.140625 C 8.710938 -11.328125 8.375 -10.285156 8.375 -9.015625 L 8.375 0 L 2.515625 0 L 2.515625 -25.171875 L 8.375 -25.171875 L 8.375 -15.265625 C 9.664062 -17.410156 11.710938 -18.507812 14.515625 -18.5625 Z M 14.515625 -18.5625 "></path></g></g></g><g fill="#121640" fill-opacity="1"><g transform="translate(211.38002, 257.085965)"><g><path d="M 20.15625 -18.28125 L 20.15625 0 L 14.28125 0 L 14.28125 -3.015625 C 13.039062 -0.847656 11.0625 0.234375 8.34375 0.234375 C 6.351562 0.234375 4.765625 -0.394531 3.578125 -1.65625 C 2.390625 -2.925781 1.796875 -4.625 1.796875 -6.75 L 1.796875 -18.28125 L 7.671875 -18.28125 L 7.671875 -8.40625 C 7.671875 -7.320312 7.945312 -6.46875 8.5 -5.84375 C 9.050781 -5.226562 9.789062 -4.921875 10.71875 -4.921875 C 11.820312 -4.941406 12.691406 -5.351562 13.328125 -6.15625 C 13.960938 -6.957031 14.28125 -7.992188 14.28125 -9.265625 L 14.28125 -18.28125 Z M 20.15625 -18.28125 "></path></g></g></g><g fill="#121640" fill-opacity="1"><g transform="translate(233.865015, 257.085965)"><g><path d="M 10.546875 -18.5625 C 13.054688 -18.5625 15.003906 -17.976562 16.390625 -16.8125 C 17.785156 -15.644531 18.492188 -14.019531 18.515625 -11.9375 L 18.515625 0 L 12.78125 0 L 12.78125 -2.109375 C 11.582031 -0.523438 9.71875 0.265625 7.1875 0.265625 C 5.269531 0.265625 3.742188 -0.265625 2.609375 -1.328125 C 1.484375 -2.390625 0.921875 -3.769531 0.921875 -5.46875 C 0.921875 -7.207031 1.523438 -8.554688 2.734375 -9.515625 C 3.941406 -10.472656 5.675781 -10.960938 7.9375 -10.984375 L 12.75 -10.984375 L 12.75 -11.265625 C 12.75 -12.171875 12.445312 -12.875 11.84375 -13.375 C 11.25 -13.882812 10.363281 -14.140625 9.1875 -14.140625 C 7.539062 -14.140625 5.722656 -13.632812 3.734375 -12.625 L 2.0625 -16.484375 C 5.03125 -17.867188 7.859375 -18.5625 10.546875 -18.5625 Z M 8.984375 -3.703125 C 9.910156 -3.703125 10.722656 -3.929688 11.421875 -4.390625 C 12.128906 -4.859375 12.570312 -5.460938 12.75 -6.203125 L 12.75 -7.84375 L 9.0625 -7.84375 C 7.289062 -7.84375 6.40625 -7.1875 6.40625 -5.875 C 6.40625 -5.1875 6.628906 -4.648438 7.078125 -4.265625 C 7.535156 -3.890625 8.171875 -3.703125 8.984375 -3.703125 Z M 8.984375 -3.703125 "></path></g></g></g></svg><style>@media (prefers-color-scheme: light) { :root { filter: none; } }
</style></svg>